# xmcd
#
# Track frame offsets: 
#        150
#        42542
#        70785
#        117752
#        145365
#        189507
#        229215
#        265715
#        299135
#        328860
#
# Disc length: 4686 seconds
#
# Revision: 0
# Processed by: cddbd v1.5.2PL0 Copyright (c) Steve Scherf et al.
# Submitted via: ExactAudioCopy v0.99pb4
#
DISCID=a0124c0a
DTITLE=Artur Schnabel Trio and Duo - Brahms: Chamber Music with Szigeti 
DTITLE=& Fournier
DYEAR=2006
DGENRE=Classical
TTITLE0=Piano Trio no. 1 in B, Op. 8: I. Allegro con brio (Brahms)
TTITLE1=Piano Trio no. 1 in B, Op. 8: II. Scherzo: Allegro molto (Brah
TTITLE1=ms)
TTITLE2=Piano Trio no. 1 in B, Op. 8: III. Adagio (Brahms)
TTITLE3=Piano Trio no. 1 in B, Op. 8: IV. Allegro (Brahms)
TTITLE4=Sonata no. 1 in G for Violin and Piano, Op. 78: I. Vivace ma n
TTITLE4=on troppo (Brahms)
TTITLE5=Sonata no. 1 in G for Violin and Piano, Op. 78: II. Adagio (Br
TTITLE5=ahms)
TTITLE6=Sonata no. 1 in G for Violin and Piano, Op. 78: III. Allegro m
TTITLE6=olto moderato (Brahms)
TTITLE7=Sonata no. 2 in A for Violin and Piano, Op. 100: I. Allegro am
TTITLE7=abile (Brahms)
TTITLE8=Sonata no. 2 in A for Violin and Piano, Op. 100: II. Andante t
TTITLE8=ranquillo (Brahms)
TTITLE9=Sonata no. 2 in A for Violin and Piano, Op. 100: III. Allegret
TTITLE9=to grazioso (quasi andante) (Brahms)
EXTD=
EXTT0=
EXTT1=
EXTT2=
EXTT3=
EXTT4=
EXTT5=
EXTT6=
EXTT7=
EXTT8=
EXTT9=
PLAYORDER=
